# MagicaVoxel @ ephtracy

# material
mtllib road-001.mtl
usemtl palette

# normals
vn -1 0 0
vn 1 0 0
vn 0 0 1
vn 0 0 -1
vn 0 -1 0
vn 0 1 0

# texcoords
vt 0.974609 0.5
vt 0.986328 0.5

# verts and faces
v -10.5 0 22.5
v -10.5 0 -22.5
v -10.5 1 22.5
v -10.5 1 -22.5
f -2/2/1 -3/2/1 -4/2/1
f -1/2/1 -3/2/1 -2/2/1
v 10.5 0 22.5
v 10.5 0 -22.5
v 10.5 1 22.5
v 10.5 1 -22.5
f -4/2/2 -3/2/2 -2/2/2
f -2/2/2 -3/2/2 -1/2/2
v -10.5 0 22.5
v -10.5 1 22.5
v -0.5 0 22.5
v -0.5 1 22.5
v 0.5 0 22.5
v 0.5 1 22.5
v 10.5 0 22.5
v 10.5 1 22.5
f -6/2/3 -7/2/3 -8/2/3
f -5/2/3 -7/2/3 -6/2/3
f -4/1/3 -5/1/3 -6/1/3
f -3/1/3 -5/1/3 -4/1/3
f -2/2/3 -3/2/3 -4/2/3
f -1/2/3 -3/2/3 -2/2/3
v -10.5 0 -22.5
v -10.5 1 -22.5
v -0.5 0 -22.5
v -0.5 1 -22.5
v 0.5 0 -22.5
v 0.5 1 -22.5
v 10.5 0 -22.5
v 10.5 1 -22.5
f -8/2/4 -7/2/4 -6/2/4
f -6/2/4 -7/2/4 -5/2/4
f -6/1/4 -5/1/4 -4/1/4
f -4/1/4 -5/1/4 -3/1/4
f -4/2/4 -3/2/4 -2/2/4
f -2/2/4 -3/2/4 -1/2/4
v -10.5 0 22.5
v -0.5 0 22.5
v 0.5 0 22.5
v 10.5 0 22.5
v -0.5 0 15.5
v 0.5 0 15.5
v -0.5 0 6.5
v 0.5 0 6.5
v -0.5 0 -6.5
v 0.5 0 -6.5
v -0.5 0 -15.5
v 0.5 0 -15.5
v -10.5 0 -22.5
v -0.5 0 -22.5
v 0.5 0 -22.5
v 10.5 0 -22.5
f -12/2/5 -15/2/5 -16/2/5
f -12/1/5 -14/1/5 -15/1/5
f -11/2/5 -13/2/5 -14/2/5
f -11/1/5 -14/1/5 -12/1/5
f -10/2/5 -12/2/5 -16/2/5
f -10/2/5 -11/2/5 -12/2/5
f -9/2/5 -13/2/5 -11/2/5
f -9/2/5 -11/2/5 -10/2/5
f -8/2/5 -10/2/5 -16/2/5
f -8/1/5 -9/1/5 -10/1/5
f -7/2/5 -13/2/5 -9/2/5
f -7/1/5 -9/1/5 -8/1/5
f -6/2/5 -8/2/5 -16/2/5
f -6/2/5 -7/2/5 -8/2/5
f -5/2/5 -13/2/5 -7/2/5
f -5/2/5 -7/2/5 -6/2/5
f -4/2/5 -6/2/5 -16/2/5
f -3/1/5 -5/1/5 -6/1/5
f -3/2/5 -6/2/5 -4/2/5
f -2/2/5 -13/2/5 -5/2/5
f -2/1/5 -5/1/5 -3/1/5
f -1/2/5 -13/2/5 -2/2/5
v -10.5 1 22.5
v -0.5 1 22.5
v 0.5 1 22.5
v 10.5 1 22.5
v -0.5 1 15.5
v 0.5 1 15.5
v -0.5 1 6.5
v 0.5 1 6.5
v -0.5 1 -6.5
v 0.5 1 -6.5
v -0.5 1 -15.5
v 0.5 1 -15.5
v -10.5 1 -22.5
v -0.5 1 -22.5
v 0.5 1 -22.5
v 10.5 1 -22.5
f -16/2/6 -15/2/6 -12/2/6
f -15/1/6 -14/1/6 -12/1/6
f -14/2/6 -13/2/6 -11/2/6
f -12/1/6 -14/1/6 -11/1/6
f -16/2/6 -12/2/6 -10/2/6
f -12/2/6 -11/2/6 -10/2/6
f -11/2/6 -13/2/6 -9/2/6
f -10/2/6 -11/2/6 -9/2/6
f -16/2/6 -10/2/6 -8/2/6
f -10/1/6 -9/1/6 -8/1/6
f -9/2/6 -13/2/6 -7/2/6
f -8/1/6 -9/1/6 -7/1/6
f -16/2/6 -8/2/6 -6/2/6
f -8/2/6 -7/2/6 -6/2/6
f -7/2/6 -13/2/6 -5/2/6
f -6/2/6 -7/2/6 -5/2/6
f -16/2/6 -6/2/6 -4/2/6
f -6/1/6 -5/1/6 -3/1/6
f -4/2/6 -6/2/6 -3/2/6
f -5/2/6 -13/2/6 -2/2/6
f -3/1/6 -5/1/6 -2/1/6
f -2/2/6 -13/2/6 -1/2/6
